<svg height="512" viewBox="0 0 511.988 511.988" width="512" xmlns="http://www.w3.org/2000/svg"><path d="M496.842 41.953l-33.526-21.004c-7.313-4.583-15.978-6.043-24.391-4.107-8.413 1.934-15.568 7.029-20.148 14.348l-94.354 150.771H35.447C15.901 181.961 0 197.88 0 217.448v192.759c0 19.567 15.901 35.486 35.447 35.486h45.087l7.029 41.94a9.998 9.998 0 0015.801 6.391l65.475-48.333 36.917-.012c5.523-.002 9.999-4.48 9.997-10.003-.002-5.522-4.479-9.997-10-9.997h-.003l-40.207.013a10.002 10.002 0 00-5.936 1.955l-55.013 40.61-5.735-34.219a10.001 10.001 0 00-9.862-8.347h-53.55c-8.518 0-15.447-6.947-15.447-15.486V217.448c0-8.54 6.93-15.487 15.447-15.487h276.461l-25.918 41.422H74.191c-5.522 0-10 4.477-10 10s4.478 10 10 10h199.284l-21.434 34.255a10.003 10.003 0 00-1.514 5.6l.078 2.571H74.191c-5.522 0-10 4.478-10 10s4.478 10 10 10H251.21l1.294 42.826H74.191c-5.522 0-10 4.478-10 10s4.478 10 10 10h188.658l.222-.003.022-.001a9.958 9.958 0 003.992-.954l68.869-30.93a10 10 0 004.374-3.807L422 222.414v187.793c0 8.539-6.93 15.486-15.446 15.486l-110.387-.013h-.001c-5.521 0-9.999 4.477-10 9.999s4.476 10 9.999 10.001l110.388.013c19.546 0 35.447-15.919 35.447-35.486V217.448c0-6.657-1.807-13.022-5.254-18.601l70.332-112.379c9.443-15.093 4.852-35.062-10.236-44.515zm-111.313 80.055l18.734 11.737L303.001 295.49l-.571-2.483a9.999 9.999 0 00-11.987-7.505l-8.426 1.938zm-85.761 229.066l-28.322-17.743-.688-22.78 14.421-3.316 3.751 16.313a9.999 9.999 0 0011.987 7.505l16.298-3.748 3.321 14.442zm20.149-44.913l101.295-161.798 18.702 11.716-103.511 165.427-1.939-8.43a9.997 9.997 0 00-11.987-7.504zm130.605-167.037l-54.385-34.072 13.555-21.665 54.384 34.071zm39.601-63.266l-15.412 24.631-54.385-34.071 15.404-24.619a12.233 12.233 0 017.676-5.466 12.234 12.234 0 019.292 1.565l33.525 21.004c5.749 3.601 7.498 11.207 3.9 16.956z"/><path d="M251.14 445.678c-4.174 0-8.006-2.7-9.404-6.631-1.377-3.871-.212-8.329 2.936-10.991 3.284-2.776 8.092-3.121 11.745-.864 3.503 2.165 5.343 6.404 4.534 10.445-.925 4.617-5.103 8.041-9.811 8.041z"/></svg>