<svg xmlns="http://www.w3.org/2000/svg" viewBox="0 0 512 512"><path d="M432 332c-5.52 0-10 4.48-10 10s4.48 10 10 10 10-4.48 10-10-4.48-10-10-10zm-40 0h-20c-5.522 0-10 4.477-10 10s4.478 10 10 10h20c5.522 0 10-4.477 10-10s-4.478-10-10-10zm-156-80h-30v-30c0-5.523-4.477-10-10-10h-40c-5.523 0-10 4.477-10 10v30h-30c-5.523 0-10 4.477-10 10v40c0 5.523 4.477 10 10 10h30v30c0 5.523 4.477 10 10 10h40c5.523 0 10-4.477 10-10v-30h30c5.522 0 10-4.477 10-10v-40c0-5.523-4.478-10-10-10zm-10 40h-30c-5.523 0-10 4.477-10 10v30h-20v-30c0-5.523-4.477-10-10-10h-30v-20h30c5.523 0 10-4.477 10-10v-30h20v30c0 5.523 4.477 10 10 10h30v20z"/><path d="M502 412h-10v-97.39a50.01 50.01 0 00-9.038-28.675l-56.796-81.134A30.003 30.003 0 00401.59 192H342v-16c0-16.542-13.458-30-30-30h-86v-36c0-27.622-22.374-50-50-50-27.57 0-50 22.43-50 50v36H50c-16.542 0-30 13.458-30 30v236H10c-5.523 0-10 4.477-10 10s4.477 10 10 10h46.728A70.104 70.104 0 0056 442c0 38.598 31.402 70 70 70s70-31.402 70-70c0-3.365-.253-6.802-.728-10.1h147.456A71.508 71.508 0 00342 442c0 38.598 31.402 70 70 70s70-31.402 70-70c0-3.365-.253-6.702-.728-10H502c5.522 0 10-4.477 10-10s-4.478-10-10-10zM146 110c0-16.542 13.458-30 30-30 16.569 0 30 13.429 30 30v36h-60v-36zm-20 382c-27.57 0-50-22.43-50-50 0-27.662 22.542-50 50-50 27.559 0 50 22.43 50 50s-22.43 50-50 50zm196-80H189.229c-11.495-24.187-36.065-40-63.229-40-27.166 0-51.736 15.814-63.229 40H40V176c0-5.514 4.486-10 10-10h262c5.514 0 10 4.486 10 10v236zm20-200h59.59a9.992 9.992 0 018.188 4.265L462.794 292H356.143l22.929-22.929c3.905-3.905 3.905-10.237 0-14.143-3.906-3.905-10.236-3.905-14.143 0L342 277.857V212zm70 280c-27.57 0-50-22.43-50-50 0-27.723 22.596-50 50-50 21.135 0 40.08 13.398 47.145 33.339l.001.003A49.742 49.742 0 01462 442c0 27.57-22.43 50-50 50zm60-86.029C459.511 385.218 436.838 372 412 372c-27.166 0-51.736 15.814-63.229 40H342V312h129.881c.075.865.119 1.735.119 2.61v91.361z"/><path d="M412 412c-16.542 0-30 13.458-30 30s13.458 30 30 30 30-13.458 30-30-13.458-30-30-30zm0 40c-5.514 0-10-4.486-10-10s4.486-10 10-10 10 4.486 10 10-4.486 10-10 10zm-286-40c-16.542 0-30 13.458-30 30s13.458 30 30 30 30-13.458 30-30-13.458-30-30-30zm0 40c-5.514 0-10-4.486-10-10s4.486-10 10-10 10 4.486 10 10-4.486 10-10 10zM176 0c-5.523 0-10 4.477-10 10v20c0 5.523 4.477 10 10 10s10-4.477 10-10V10c0-5.523-4.477-10-10-10zM96 100H76c-5.523 0-10 4.477-10 10s4.477 10 10 10h20c5.523 0 10-4.477 10-10s-4.477-10-10-10zm180 0h-20c-5.522 0-10 4.477-10 10s4.478 10 10 10h20c5.522 0 10-4.477 10-10s-4.478-10-10-10zm-22.218-67.781c-3.907-3.906-10.237-3.906-14.143 0l-14.14 14.14c-3.905 3.905-3.905 10.237 0 14.143 3.905 3.905 10.237 3.905 14.143 0l14.14-14.14c3.905-3.905 3.905-10.237 0-14.143zm-127.28 14.139l-14.14-14.14c-3.905-3.905-10.237-3.905-14.143 0-3.906 3.905-3.905 10.237 0 14.143l14.14 14.14c3.905 3.905 10.237 3.905 14.143 0 3.905-3.905 3.905-10.237 0-14.143z"/></svg>