<svg viewBox="0 -7 472.004 472" width="48" fill="#fff" xmlns="http://www.w3.org/2000/svg"><path d="M472.004 10.242c0-5.52-4.164-10.238-9.688-10.238H9.684c-5.52 0-9.68 4.719-9.68 10.238v366.192a9.36 9.36 0 002.781 6.867 9.396 9.396 0 006.899 2.703h153.128l-14.39 52h-25.953c-5.524 0-10 4.476-10 10 0 5.52 4.476 10 10 10h227.066c5.524 0 10-4.48 10-10 0-5.524-4.476-10-10-10h-25.95l-14.394-52h153.125a9.378 9.378 0 009.688-9.57zm-452 9.762h432v276h-432zm282.808 418h-133.62l14.394-52h104.836zm149.192-72h-432v-50h432zm0 0"/><path d="M402.004 148.004h-39.86a9.994 9.994 0 00-7.855 3.809l-28.273 35.87-30.493-76.038a10.007 10.007 0 00-9.082-6.278h-.203a10.007 10.007 0 00-9.125 5.918l-50.11 112.035-49.241-145.035a10.001 10.001 0 00-18.133-1.777l-41.219 71.496H70.004c-5.524 0-10 4.476-10 10 0 5.52 4.476 10 10 10h54.183a10.01 10.01 0 008.665-5.008l33.07-57.367 50.34 148.254a10.003 10.003 0 009.465 6.785 10.008 10.008 0 009.128-5.918l50.883-113.766 28.145 70.188a10 10 0 0017.137 2.469l35.972-45.637h35.012c5.52 0 10-4.48 10-10 0-5.524-4.48-10-10-10zm0 0"/></svg>