<svg xmlns="http://www.w3.org/2000/svg" viewBox="0 0 512.001 512.001"><path d="M251.024 61.037c-5.52 0-9.999 4.48-9.999 9.999s4.48 9.999 9.999 9.999c5.52 0 9.999-4.48 9.999-9.999s-4.479-9.999-9.999-9.999zm19.999 119.989h-39.996a9.998 9.998 0 00-9.486 6.837L211.028 219.4l-10.512-31.536a9.999 9.999 0 00-9.486-6.837h-12.191l-18.104-72.42a9.997 9.997 0 00-9.7-7.573 9.998 9.998 0 00-9.7 7.573l-18.104 72.42H91.038c-5.522 0-9.999 4.478-9.999 9.999 0 5.522 4.478 9.999 9.999 9.999h39.996a9.998 9.998 0 009.7-7.573l10.298-41.19 10.298 41.19a9.997 9.997 0 009.7 7.573h12.791l17.719 53.157a9.999 9.999 0 0018.972 0l17.719-53.157h32.789c5.522 0 9.999-4.478 9.999-9.999.003-5.522-4.475-10-9.996-10z"/><path d="M495.476 424.867C482.54 413.05 351.123 293.259 332.559 276.336c44.371-70.429 34.724-163.595-25.259-223.579-70.34-70.338-184.192-70.346-254.54 0-70.338 70.34-70.346 184.192 0 254.541 59.953 59.951 153.002 69.583 223.369 25.387.149.163 150.437 164.578 150.557 164.696 19.529 19.496 51.127 19.507 70.654-.037 20.764-20.748 18.856-54.087-1.864-72.477zM66.902 293.155c-62.521-62.519-62.532-163.728 0-226.257 62.52-62.521 163.728-62.533 226.257 0 62.91 62.909 62.794 164.043.29 226.547-62.548 62.558-163.774 62.483-226.547-.29zm226.87 28.902a12.574 12.574 0 00-.319-.334l-.781-.781a181.048 181.048 0 0028.207-28.197l23.003 20.972-30.188 30.188-19.922-21.848zm189.427 161.145c-12.368 12.376-32.481 11.402-43.503-1.15L327.183 358.698l31.493-31.492 123.382 112.487c13.441 12.434 12.713 31.947 1.141 43.509z"/><path d="M288.473 91.42c-3.509-4.263-9.81-4.877-14.075-1.367s-4.876 9.811-1.367 14.075c39.424 47.902 36.041 117.13-7.87 161.031-46.805 46.815-122.869 46.821-169.682-.002-46.816-46.806-46.82-122.87.001-169.681 30.275-30.274 74.852-42.121 116.342-30.914 5.33 1.438 10.821-1.715 12.261-7.046 1.439-5.331-1.715-10.82-7.046-12.261-48.379-13.07-100.377.756-135.698 36.078-54.632 54.622-54.638 143.339-.002 197.965 54.622 54.633 143.339 54.638 197.965.002 51.257-51.25 54.477-132.832 9.171-187.88z"/></svg>