<svg xmlns="http://www.w3.org/2000/svg" viewBox="0 0 512 512"><path d="M176 326c-5.52 0-10 4.48-10 10s4.48 10 10 10 10-4.48 10-10-4.48-10-10-10z"/><path d="M416 40H304.995C300.35 17.206 280.146 0 256 0s-44.35 17.206-48.995 40H96c-16.542 0-30 13.458-30 30v412c0 16.542 13.458 30 30 30h320c16.542 0 30-13.458 30-30V70c0-16.542-13.458-30-30-30zM186 60h30c5.522 0 10-4.478 10-10 0-16.542 13.458-30 30-30s30 13.458 30 30c0 5.522 4.478 10 10 10h30v20H186V60zm200 40v352H126V100h260zm40 382c0 5.514-4.486 10-10 10H96c-5.514 0-10-4.486-10-10V70c0-5.514 4.486-10 10-10h70v20h-50c-5.522 0-10 4.478-10 10v372c0 5.522 4.478 10 10 10h280c5.522 0 10-4.478 10-10V90c0-5.522-4.478-10-10-10h-50V60h70c5.514 0 10 4.486 10 10v412z"/><path d="M336 386H176c-5.522 0-10 4.478-10 10s4.478 10 10 10h160c5.522 0 10-4.478 10-10s-4.478-10-10-10zm0-60H216c-5.522 0-10 4.478-10 10s4.478 10 10 10h120c5.522 0 10-4.478 10-10s-4.478-10-10-10zm-80-180c-38.598 0-70 31.402-70 70s31.402 70 70 70 70-31.402 70-70-31.402-70-70-70zm0 120c-27.57 0-50-22.43-50-50s22.43-50 50-50 50 22.43 50 50-22.43 50-50 50z"/><path d="M276 206h-10v-10c0-5.522-4.478-10-10-10s-10 4.478-10 10v10h-10c-5.522 0-10 4.478-10 10s4.478 10 10 10h10v10c0 5.522 4.478 10 10 10s10-4.478 10-10v-10h10c5.522 0 10-4.478 10-10s-4.478-10-10-10z"/></svg>