<svg xmlns="http://www.w3.org/2000/svg" viewBox="0 0 512 512"><path d="M203.07 258.93c-3.9-3.91-10.24-3.91-14.14 0-3.91 3.9-3.91 10.24 0 14.14 3.9 3.91 10.24 3.91 14.14 0 3.91-3.9 3.91-10.24 0-14.14zM256 276c-16.542 0-30 13.458-30 30s13.458 30 30 30 30-13.458 30-30-13.458-30-30-30zm0 40c-5.514 0-10-4.486-10-10s4.486-10 10-10 10 4.486 10 10-4.486 10-10 10z"/><path d="M256 226c-11.178 0-21.987 2.259-32.124 6.715-5.056 2.223-7.353 8.123-5.131 13.179 2.222 5.056 8.123 7.352 13.179 5.131C239.509 247.691 247.61 246 256 246c33.084 0 60 26.916 60 60s-26.916 60-60 60-60-26.916-60-60c0-.342-.001-.676.007-1.018.128-5.521-4.244-10.101-9.765-10.229-5.53-.138-10.101 4.243-10.229 9.765-.012.498-.013.984-.013 1.482 0 44.112 35.888 80 80 80s80-35.888 80-80-35.888-80-80-80zm0-150c-5.523 0-10 4.477-10 10v60c0 5.523 4.477 10 10 10s10-4.477 10-10V86c0-5.523-4.477-10-10-10zm-111.719 74.138l-42.42-42.42c-3.905-3.905-10.237-3.905-14.143 0-3.905 3.905-3.905 10.237 0 14.143l42.42 42.42c3.905 3.905 10.238 3.906 14.143 0 3.905-3.905 3.905-10.237 0-14.143zm280.001-42.42c-3.905-3.905-10.237-3.905-14.143 0l-42.42 42.42c-3.905 3.905-3.905 10.237 0 14.143 3.904 3.905 10.237 3.906 14.143 0l42.42-42.42c3.905-3.905 3.905-10.237 0-14.143z"/><path d="M509.495 307.71C445.97 235.791 351.646 176 256 176c-95.659 0-189.982 59.806-253.495 131.71-3.656 4.14-3.264 10.459.875 14.115 4.14 3.656 10.46 3.264 14.115-.875a417.735 417.735 0 016.525-7.206C73.435 388.408 163.013 436 256 436s182.565-47.592 231.98-122.256a425.305 425.305 0 016.525 7.206c3.644 4.126 9.963 4.542 14.115.875 4.139-3.656 4.531-9.976.875-14.115zM256 416c-87.915 0-172.471-45.679-217.689-116.98C73.939 264.109 156.261 196 256 196c99.74 0 182.061 68.109 217.689 103.019C428.471 370.321 343.915 416 256 416z"/></svg>