<svg height="512" viewBox="0 0 60 60" width="512" xmlns="http://www.w3.org/2000/svg"><path d="M0 29.66A1.72 1.72 0 000 30a1.89 1.89 0 000 .43C2.7 41.19 15.3 49 30 49s27.3-7.81 30-18.66a1.72 1.72 0 000-.34c0-.145-.017-.29-.05-.43C57.3 18.81 44.7 11 30 11S2.7 18.81 0 29.66zM35.16 27a6.09 6.09 0 00-2.11-2.11 1.86 1.86 0 010-.34A2.5 2.5 0 1135.5 27a1.86 1.86 0 01-.34 0zM34 30a4 4 0 11-8 0 4 4 0 018 0zm-3-5.9a5.91 5.91 0 00-1-.1 6 6 0 106 6 5.91 5.91 0 00-.1-1 4.46 4.46 0 003-7.33l1.13.18a12.91 12.91 0 010 16.38A62.15 62.15 0 0130 39a61.93 61.93 0 01-10.06-.81 12.88 12.88 0 010-16.38 61.93 61.93 0 0112.7-.75A4.42 4.42 0 0031 24.1zm22.4 9.54a16.76 16.76 0 010-7.28A9.73 9.73 0 0156.94 30a9.73 9.73 0 01-3.54 3.64zm-1.79 1a36.31 36.31 0 01-8.71 3 15 15 0 000-15.3 36.31 36.31 0 018.71 3 18.18 18.18 0 000 9.34zM15 30a15 15 0 002.11 7.65 34 34 0 01-9.59-3.46 18.49 18.49 0 000-8.38 34 34 0 019.59-3.46A15 15 0 0015 30zm-9.28-3c.185.99.278 1.994.28 3a16.52 16.52 0 01-.28 3 8.88 8.88 0 01-2.66-3 8.88 8.88 0 012.66-3zM30 47C18 47 7.48 41.55 3.39 33.62 8.12 38 18.38 41 30 41s21.86-3 26.6-7.37C52.49 41.56 42 47 30 47zm26.68-20.55C52 22 41.68 19 30 19S8.13 22 3.39 26.38C7.5 18.44 18 13 30 13s22.62 5.51 26.68 13.45z"/><path d="M59 8.5c-4.82 0-5-4.93-5-5.5a1 1 0 00-2 0c0 .57-.18 5.5-5 5.5a1 1 0 000 2c4.83 0 5 4.94 5 5.5a1 1 0 002 0c0-.57.18-5.5 5-5.5a1 1 0 000-2zM53 12a6.46 6.46 0 00-2.24-2.5A6.46 6.46 0 0053 7a6.46 6.46 0 002.24 2.5A6.46 6.46 0 0053 12zM1 51.5c4.83 0 5 4.94 5 5.5a1 1 0 002 0c0-.57.18-5.5 5-5.5a1 1 0 000-2c-4.82 0-5-4.93-5-5.5a1 1 0 00-2 0c0 .57-.18 5.5-5 5.5a1 1 0 000 2zM7 48a6.46 6.46 0 002.24 2.5A6.46 6.46 0 007 53a6.46 6.46 0 00-2.24-2.5A6.46 6.46 0 007 48zm12 3a1 1 0 00-2 0v2a1 1 0 002 0zm-1 9a1 1 0 001-1v-2a1 1 0 00-2 0v2a1 1 0 001 1zm2-4h2a1 1 0 000-2h-2a1 1 0 000 2zm-4-2h-2a1 1 0 000 2h2a1 1 0 000-2zM42 0a1 1 0 00-1 1v2a1 1 0 002 0V1a1 1 0 00-1-1zm-1 9a1 1 0 002 0V7a1 1 0 00-2 0zm3-3h2a1 1 0 000-2h-2a1 1 0 000 2zm-4-2h-2a1 1 0 000 2h2a1 1 0 000-2z"/></svg>