<svg height="512" viewBox="0 0 60 61" width="512" xmlns="http://www.w3.org/2000/svg"><path d="M54.38 29.69a21.14 21.14 0 005.33-8.8c.08-.26.15-.53.21-.8v-.1a2.3 2.3 0 000-1C57.3 8 44.71 0 30 0S2.7 8 .05 19a2.31 2.31 0 000 1v.1c.06.27.13.54.21.79C3 30.24 13 37.3 25.42 38.72a17.5 17.5 0 1029-9zm-1.55-1.28A17.17 17.17 0 0051 27.19c.56-.24 1.1-.49 1.62-.76A18.62 18.62 0 0056.21 24a20.51 20.51 0 01-3.38 4.41zM31.4 29h-1.88a62.61 62.61 0 01-9.52-.79 12.87 12.87 0 010-16.42 63 63 0 019.57-.79h.91c.72 0 1.44 0 2.15.05a4.49 4.49 0 00-1.59 3 5.91 5.91 0 00-1-.1 6 6 0 106 6 5.91 5.91 0 00-.1-1A4.5 4.5 0 0040 14.5a4.45 4.45 0 00-1.07-2.88l1.12.17A12.86 12.86 0 0142 25a17.4 17.4 0 00-10.6 4zM3.06 20a8.9 8.9 0 012.66-3 16.245 16.245 0 010 6 8.93 8.93 0 01-2.61-2.9.31.31 0 01-.05-.1zm4.46-4.2A32.14 32.14 0 0116 12.59l1.16-.26a14.87 14.87 0 000 15.34L16 27.41a32.14 32.14 0 01-8.41-3.19A17.81 17.81 0 008 20a18.64 18.64 0 00-.48-4.2zM35.16 17a6.09 6.09 0 00-2.11-2.11 1.86 1.86 0 010-.34A2.5 2.5 0 1135.5 17a1.86 1.86 0 01-.34 0zM34 20a4 4 0 11-8 0 4 4 0 018 0zm8.88-7.67l1.15.26a35.33 35.33 0 017.58 2.73 18.26 18.26 0 000 9.36c-1.03.52-2.088.98-3.17 1.38a17.37 17.37 0 00-4.33-1 14.94 14.94 0 00-1.23-12.75zm14 7.8a10.12 10.12 0 01-3.48 3.5 16.67 16.67 0 010-7.26A9.91 9.91 0 0156.94 20zM30 2c12.6 0 23.48 6.13 27.13 14.86a17.52 17.52 0 00-4.55-3.29 36.45 36.45 0 00-8.07-2.92A61.06 61.06 0 0030.55 9c-.35-.02-.7-.02-1.05 0a61.17 61.17 0 00-14 1.64A34.93 34.93 0 006.56 14a16.15 16.15 0 00-3.68 2.81C6.55 8.11 17.42 2 30 2zM3.8 24a18.06 18.06 0 002.76 2 34.93 34.93 0 008.93 3.39A60.87 60.87 0 0029.35 31 17.54 17.54 0 0026 36.77C16 35.72 7.63 30.82 3.8 24zm38.7 34C33.94 58 27 51.06 27 42.5S33.94 27 42.5 27 58 33.94 58 42.5c-.006 8.558-6.942 15.494-15.5 15.5z"/><path d="M51.32 35.27L37.11 48.53l-3.33-4.15a1 1 0 10-1.56 1.24l4 5a1 1 0 00.71.38H37a1 1 0 00.68-.27l15-14a1 1 0 00-1.36-1.46z"/></svg>