<svg height="512" viewBox="0 0 60 58" width="512" xmlns="http://www.w3.org/2000/svg"><path d="M30 58c14.7 0 27.3-7.81 30-18.63a2.21 2.21 0 000-.37 2.58 2.58 0 00-.05-.43c-1.65-6.69-7.32-12.51-15.3-15.77.327-.372.628-.766.9-1.18 3.41-5.26.15-9.75-2.73-13.71a29.94 29.94 0 01-3-4.68A2 2 0 0038 2.08a2 2 0 00-1.83 1.16 29.79 29.79 0 01-3 4.67C31.13 10.74 29 13.67 29 17a8.91 8.91 0 00.54 3C15 20.17 2.68 27.92.05 38.63A2.21 2.21 0 000 39a2.58 2.58 0 000 .43C2.7 50.19 15.3 58 30 58zM5.72 36A16.6 16.6 0 016 39a16.52 16.52 0 01-.28 3 8.79 8.79 0 01-2.66-3 8.88 8.88 0 012.66-3zM34 39a4 4 0 11-8 0 4 4 0 018 0zm1.16-3a6.09 6.09 0 00-2.11-2.11 1.86 1.86 0 010-.34A2.5 2.5 0 1135.5 36a1.86 1.86 0 01-.34 0zM31 33.1a5.91 5.91 0 00-1-.1 6 6 0 106 6 5.91 5.91 0 00-.1-1 4.46 4.46 0 003-7.33l1.13.18a12.91 12.91 0 010 16.38A62.15 62.15 0 0130 48a61.93 61.93 0 01-10.06-.81 12.88 12.88 0 010-16.38 61.93 61.93 0 0112.7-.75A4.42 4.42 0 0031 33.1zM56.94 39a9.73 9.73 0 01-3.54 3.64 16.76 16.76 0 010-7.28A9.73 9.73 0 0156.94 39zm-5.33 4.67a36.31 36.31 0 01-8.71 3 15 15 0 000-15.3 36.31 36.31 0 018.71 3 18.18 18.18 0 000 9.34zM15 39a15 15 0 002.11 7.65 34.34 34.34 0 01-9.59-3.45A18.64 18.64 0 008 39c0-1.41-.16-2.816-.48-4.19a34 34 0 019.59-3.46A15 15 0 0015 39zm15 17C17.91 56 7.37 50.49 3.32 42.55a15.48 15.48 0 002.35 1.81.83.83 0 00.33.22C11.38 47.89 20.21 50 30 50c9.22 0 17.57-1.88 23-4.85h.1a1 1 0 00.4-.26 16.94 16.94 0 003.1-2.24C52.49 50.56 42 56 30 56zm4.81-46.91a31.12 31.12 0 003.18-5 32 32 0 003.19 5c2.86 3.93 5.33 7.33 2.67 11.44a7.14 7.14 0 01-6 3.47A7 7 0 0131 17c0-2.67 1.85-5.22 3.81-7.91zM30 22h.55a9 9 0 007.25 4h.2a8.51 8.51 0 005-1.7c6.31 2.38 11.16 6.39 13.62 11.1a17.18 17.18 0 00-3.14-2.28 1 1 0 00-.39-.25H53C47.59 29.88 39.23 28 30 28c-9.79 0-18.61 2.11-24 5.41a.89.89 0 00-.34.23 16.88 16.88 0 00-2.26 1.73C7.51 27.44 18 22 30 22z"/><path d="M38 22a1 1 0 000-2 3 3 0 01-3-3 1 1 0 00-2 0 5 5 0 005 5zM55.75 1.47a2 2 0 00-3.5 0 24.86 24.86 0 01-1.56 2.39C49.37 5.72 48 7.64 48 9.88a6 6 0 1012 0c0-2.24-1.36-4.16-2.68-6a23.25 23.25 0 01-1.57-2.41zM54 14a4.06 4.06 0 01-4-4.12c0-1.6 1.13-3.18 2.32-4.86A25.32 25.32 0 0054 2.44 27.23 27.23 0 0055.69 5C56.88 6.7 58 8.28 58 9.88A4.06 4.06 0 0154 14z"/></svg>