<svg height="512" viewBox="0 0 60 43" width="512" xmlns="http://www.w3.org/2000/svg"><path d="M60 6.5C60 2.61 47.07 0 35 0S10 2.61 10 6.5c0 4.92 4.64 9.14 11.73 11.5H3a3 3 0 00-3 3v19a3 3 0 003 3h48a9 9 0 006.65-3 .5.5 0 00.1-.11A8.94 8.94 0 0060 34c0-7.46-5.78-12.89-15.34-15C53.75 17 60 12.21 60 6.5zM29.23 41c5.22-3.43 14.15-8.53 18.64-8 6.13.8 7.63 4.35 8 6A7 7 0 0151 41zM58 34a7 7 0 01-.7 3c-1.2-2.72-4-5.3-9.17-6-6.87-.83-20.33 8.5-22.45 10H3a1 1 0 01-1-1V21a1 1 0 011-1h3v7a1 1 0 002 0v-7h4v7a1 1 0 002 0v-7h21c14 0 23 5.5 23 14zM35 18c-12.47 0-23-5.27-23-11.48C12.33 5.14 21.37 2 35 2s22.64 3.13 23 4.51C58 12.74 47.46 18 35 18z"/><path d="M35 14c-11.6 0-18.41-4.6-19-7.18a1.023 1.023 0 10-2 .43C15 11.46 23.24 16 35 16a1 1 0 000-2z"/></svg>