<svg viewBox="-10 0 456 456" width="48" fill="#fff" xmlns="http://www.w3.org/2000/svg"><path d="M29.637 456h35.722A29.476 29.476 0 0095 426.512v-10.813l35.23-6.957c11.454-1.832 18.676-2.555 30.766-2l97.836 4.91c35.606 1.621 70.32-10.98 97.7-35.5l67.698-60.648c.075-.067.149-.133.22-.203 13.69-12.996 15.566-34.149 4.378-49.352l-.137-.222a9.274 9.274 0 00-.546-.797 34.492 34.492 0 00-23.91-13.602 32.933 32.933 0 00-25.301 8.195c-17.555 15.395-43.332 37.88-61.918 54.07a67.387 67.387 0 01-41.73 16.782l-46.45 1.684a4.096 4.096 0 01-3.613-2.172c-.032-.059-.063-.121-.098-.18l-5.215-9.531a6.366 6.366 0 01-.172-5.711 4.447 4.447 0 013.016-2.625l48.016-9.793c17.312-3.406 29.375-20.77 27.464-39.524-1.882-18.515-17.62-32.652-35.289-31.8l-64.261-2.84c-26.004-1-48.164 4.351-74.125 17.91l-32.344 17.043A29.645 29.645 0 0065.359 246H29.637a29.423 29.423 0 00-20.946 8.55A29.419 29.419 0 000 275.442v151.07a29.48 29.48 0 008.684 20.91A29.483 29.483 0 0029.637 456zm104.136-192.484c22.954-11.993 41.547-16.528 64.063-15.657l64.723 2.86c.375.015.753.011 1.125-.012 7.27-.5 13.828 5.715 14.656 13.832.86 8.445-4.27 16.465-11.5 17.89l-48.082 9.805a24.206 24.206 0 00-17.16 13.797 26.456 26.456 0 00.761 23.735l5.176 9.457a23.923 23.923 0 0021.77 12.824h.152l46.594-1.692a87.43 87.43 0 0054.152-21.73c18.543-16.16 44.34-38.66 61.934-54.09a13.156 13.156 0 0110.09-3.312 14.2 14.2 0 019.699 5.433l.086.14c.172.274.351.544.547.802 5.343 7.047 4.57 16.976-1.797 23.113l-67.578 60.543c-23.442 21-53.043 31.805-83.383 30.418l-97.824-4.91c-13.786-.63-22.618.265-35.043 2.258-.118.02-.286.043-.407.066L95 395.313V283.738zM75 427.262A9.738 9.738 0 0165.262 437H29.738A9.738 9.738 0 0120 427.262V275.738A9.738 9.738 0 0129.738 266h35.524A9.738 9.738 0 0175 275.738zM234 202h52c5.523 0 10-4.477 10-10v-55h55c5.523 0 10-4.477 10-10V75c0-5.523-4.477-10-10-10h-55V10c0-5.523-4.477-10-10-10h-52c-5.523 0-10 4.477-10 10v55h-55c-5.523 0-10 4.477-10 10v52c0 5.523 4.477 10 10 10h55v55c0 5.523 4.477 10 10 10zm-55-85V85h55c5.523 0 10-4.477 10-10V20h32v55c0 5.523 4.477 10 10 10h55v32h-55c-5.523 0-10 4.477-10 10v55h-32v-55c0-5.523-4.477-10-10-10zm0 0"/></svg>