<svg height="512" viewBox="0 0 60 61" width="512" xmlns="http://www.w3.org/2000/svg"><path d="M54.38 29.69a21.14 21.14 0 005.33-8.8c.08-.26.15-.53.21-.8v-.1a2.3 2.3 0 000-1C57.3 8 44.71 0 30 0S2.7 8 .05 19a2.31 2.31 0 000 1v.1c.06.27.13.54.21.79C3 30.24 13 37.3 25.42 38.72a17.5 17.5 0 1029-9zm-1.55-1.28A17.17 17.17 0 0051 27.19c.56-.24 1.1-.49 1.62-.76l.7-.39a18.1 18.1 0 002.93-2 20.51 20.51 0 01-3.42 4.37zM31.4 29h-1.88a61.57 61.57 0 01-9.52-.79 12.87 12.87 0 010-16.41 61.41 61.41 0 019.57-.8h.91c.73 0 1.44 0 2.15.05a4.49 4.49 0 00-1.59 3 5.91 5.91 0 00-1-.1 6 6 0 106 6 5.91 5.91 0 00-.1-1 4.46 4.46 0 003-7.33l1.11.17A12.84 12.84 0 0142 25a17.4 17.4 0 00-10.6 4zM3.06 20a8.9 8.9 0 012.66-3c.185.99.278 1.994.28 3a16.43 16.43 0 01-.28 3 9.07 9.07 0 01-2.61-2.9.31.31 0 01-.05-.1zm4.46-4.2A32.14 32.14 0 0116 12.59l1.16-.26a14.87 14.87 0 000 15.34L16 27.41a32.51 32.51 0 01-8.41-3.18A17.81 17.81 0 008 20a18.64 18.64 0 00-.48-4.2zM35.16 17a6.09 6.09 0 00-2.11-2.11 1.86 1.86 0 010-.34A2.5 2.5 0 1135.5 17a1.86 1.86 0 01-.34 0zM34 20a4 4 0 11-8 0 4 4 0 018 0zm8.88-7.67l1.15.26a35.33 35.33 0 017.58 2.73 18.26 18.26 0 000 9.36c-1.03.52-2.088.98-3.17 1.38a17.37 17.37 0 00-4.33-1 14.94 14.94 0 00-1.23-12.75zm14 7.8a10.1 10.1 0 01-3.48 3.49A16.26 16.26 0 0153 20a16.55 16.55 0 01.4-3.63A10 10 0 0156.94 20zM30 2c12.6 0 23.5 6.13 27.13 14.88A16.45 16.45 0 0053.29 14h-.1l-.61-.33a36.45 36.45 0 00-8.07-2.92 52.69 52.69 0 00-3.75-.77A62.58 62.58 0 0030.55 9c-.35-.02-.7-.02-1.05 0a62.5 62.5 0 00-10.25.87c-1.31.22-2.58.48-3.76.77a34.86 34.86 0 00-9 3.44c-.24.14-.46.27-.64.39a15.15 15.15 0 00-2.95 2.35C6.56 8.1 17.43 2 30 2zM3.8 24a17.29 17.29 0 002 1.48c.23.15.49.3.74.45a34.93 34.93 0 008.93 3.39c1.14.28 2.36.53 3.62.74h.13a65.34 65.34 0 0010.13.94A17.44 17.44 0 0026 36.77C16 35.72 7.63 30.82 3.8 24zm38.7 34C33.94 58 27 51.06 27 42.5S33.94 27 42.5 27 58 33.94 58 42.5c-.006 8.558-6.942 15.494-15.5 15.5z"/><path d="M50.71 34.29a1 1 0 00-1.42 0l-6.79 6.8-6.79-6.8a1.004 1.004 0 00-1.42 1.42l6.8 6.79-6.8 6.79a1 1 0 000 1.42 1 1 0 001.42 0l6.79-6.8 6.79 6.8a1 1 0 001.42 0 1 1 0 000-1.42l-6.8-6.79 6.8-6.79a1 1 0 000-1.42z"/></svg>