<svg height="28" fill="#115783" viewBox="1 -7 512 511" width="auto" xmlns="http://www.w3.org/2000/svg"><path d="M456.496 300.57a29.906 29.906 0 01-8.203-15.324c-8.438-42.187-14.453-59.973-32.313-112.773-7.91-23.387-31.316-94.008-31.386-94.184-7.77-19.883-28.176-31.324-47.453-26.601-20.075 4.914-33.032 23.964-30.18 44.34l7.476 62.593-41.261-41.035c-3.914-3.895-10.246-3.879-14.14.039-3.895 3.914-3.876 10.242.038 14.137l61.649 61.308a9.998 9.998 0 0016.977-8.277s-10.919-91.398-10.93-91.477c-1.457-10.195 5.046-19.746 15.125-22.21 9.351-2.29 19.843 3.945 23.984 14.218 13.422 41.102 23.258 70.18 31.164 93.555 17.55 51.883 23.46 69.363 31.648 110.285a49.809 49.809 0 0013.68 25.55l45.484 45.364-113.101 113.098-44.621-44.504c-7.656-7.652-17.754-12.59-29.211-14.277-10.617-1.555-21.125-3.825-31.453-6.73a1326.42 1326.42 0 015.254-2.267c9.492-4.062 16.34-12.593 18.312-22.816 3.754-19.457-11.043-37.227-30.57-37.227h-23.602l67.703-67.476c11.727-11.719 11.723-30.695.004-42.418a29.798 29.798 0 00-9.32-6.316c6.543-11.45 4.938-26.325-4.824-36.086-9.766-9.766-24.637-11.368-36.086-4.825a29.766 29.766 0 00-6.32-9.32c-11.72-11.723-30.696-11.723-42.418 0l-8.29 8.29a29.646 29.646 0 00-5.843-8.29c-9.38-9.379-23.2-11.125-34.18-5.844L54.094 68.746c-7.793-7.8-7.797-20.488-.004-28.281 7.82-7.82 20.46-7.82 28.277 0 122.836 121.82 110.227 109.312 111.14 110.219 3.927 3.882 10.255 3.847 14.138-.079 3.882-3.925 3.847-10.253-.079-14.136l-82.789-81.871c-7.808-7.805-7.812-20.461 0-28.27 7.754-7.754 20.391-7.883 28.297.024l49.301 49.027c3.914 3.89 10.242 3.875 14.137-.04 3.894-3.917 3.875-10.245-.04-14.14l-49.28-49.008c-15.594-15.59-40.962-15.59-56.551 0-5.043 5.047-8.563 11.204-10.352 17.918l-3.781-3.78c-15.633-15.634-40.918-15.634-56.551 0-15.586 15.581-15.586 40.948 0 56.55l3.816 3.816a39.69 39.69 0 00-17.957 10.32c-15.574 15.59-15.574 40.958.043 56.59l3.77 3.727c-6.727 1.785-12.895 5.313-17.945 10.367-15.59 15.59-15.59 40.961.062 56.61l51.594 50.754a126.529 126.529 0 00-14.168 58.148 9.925 9.925 0 01-2.93 7.066L3.11 383.422c-3.906 3.902-3.902 10.23 0 14.137l84.82 84.82a9.999 9.999 0 0014.137 0l43.145-43.137a9.942 9.942 0 017.066-2.93c38.895 0 65.926-7.949 89.055-16.902 18.285 6.95 37.332 11.93 56.688 14.766 7.167 1.054 13.382 4.043 17.988 8.644l51.699 51.563a9.977 9.977 0 007.063 2.918 9.971 9.971 0 007.066-2.926L509.07 367.137a9.992 9.992 0 00-.008-14.145zM39.953 111.148c7.73-7.726 20.348-7.785 28.137-.132l75.863 75.004-28.277 28.277-75.719-74.867c-7.789-7.797-7.789-20.489-.004-28.282zm-14.129 70.68c9.848-9.855 18.324-6.144 29.934 1.34l45.781 45.266-15.312 15.316a126.059 126.059 0 00-12.032 13.945L25.82 210.113c-7.797-7.797-7.797-20.484.004-28.285zM131.07 425.105l-36.078 36.067-70.683-70.684 36.07-36.074c5.664-5.668 8.785-13.195 8.785-21.207 0-19.3 5.246-38.25 15.18-54.797a106.48 106.48 0 0116.02-20.523l64.835-64.836a9.983 9.983 0 0114.133 0c3.852 3.847 3.89 10.148.094 14.039-.055.058-.113.117-.168.18l-42.34 42.328c-3.902 3.902-3.902 10.234 0 14.136 3.902 3.903 10.23 3.907 14.137.004 6.324-6.328 54.086-54.09 70.687-70.687 3.899-3.899 10.227-3.914 14.14 0 3.9 3.898 3.9 10.242 0 14.14L165.2 277.88c-3.906 3.902-3.906 10.23 0 14.137a9.999 9.999 0 0014.137 0l84.82-84.82c3.899-3.9 10.239-3.895 14.133 0 3.895 3.894 3.895 10.234 0 14.132l-84.82 84.82c-3.903 3.903-3.903 10.235 0 14.137s10.23 3.902 14.136 0l70.676-70.676c.004-.004.008-.004.012-.007 3.898-3.891 10.242-3.899 14.14 0 3.93 3.93 3.88 10.261.012 14.128l-84.828 84.543a9.998 9.998 0 00-2.183 10.899 9.996 9.996 0 009.238 6.176h47.793c6.77 0 12.36 6.105 10.941 13.445-1.367 7.09-6.68 8.273-13.601 11.266-7.614 3.289-14.801 6.398-22.227 9.347-22.094 8.785-47.719 16.914-85.3 16.914-8.012 0-15.544 3.121-21.208 8.785zm0 0"/><path d="M230.746 89.371c-3.91 3.91-3.91 10.238 0 14.137 3.899 3.91 10.238 3.91 14.137 0 3.906-3.899 3.906-10.227 0-14.137-3.899-3.898-10.238-3.898-14.137 0zm0 0"/></svg>