<svg xmlns="http://www.w3.org/2000/svg" width="612" height="612"><path d="M581.4 520.199H30.6c-16.891 0-30.6 13.709-30.6 30.6C0 567.691 13.709 581.4 30.6 581.4h550.8c16.891 0 30.6-13.709 30.6-30.602 0-16.89-13.709-30.599-30.6-30.599zM30.6 91.799h550.8c16.891 0 30.6-13.708 30.6-30.6 0-16.892-13.709-30.6-30.6-30.6H30.6C13.709 30.6 0 44.308 0 61.2c0 16.891 13.709 30.599 30.6 30.599zm550.8 183.6H30.6C13.709 275.399 0 289.108 0 306s13.709 30.6 30.6 30.6h550.8c16.891 0 30.6-13.709 30.6-30.6s-13.709-30.601-30.6-30.601z"/></svg>