<svg height="512" viewBox="0 0 60 60" width="512" xmlns="http://www.w3.org/2000/svg"><path d="M57 53V32.22a4.62 4.62 0 002-3.82v-2.85a3 3 0 00-.15-.88.61.61 0 00-.05-.12 2.83 2.83 0 00-.23-.54l-5.13-8.55A3 3 0 0050.87 14h-5.41c.22-.573.401-1.161.54-1.76a1.79 1.79 0 000-.24 1.6 1.6 0 000-.32C44.55 4.91 37.84 0 30 0S15.45 4.91 14 11.76a1.79 1.79 0 000 .24 1.6 1.6 0 000 .32c.137.57.31 1.132.52 1.68H9.13a3 3 0 00-2.57 1.46L1.43 24a2.66 2.66 0 00-.23.55.37.37 0 00-.05.11 3 3 0 00-.15.88v2.86a4.62 4.62 0 002 3.82V53a3 3 0 00-3 3v1a3 3 0 003 3h54a3 3 0 003-3v-1a3 3 0 00-3-3zM33.66 7.26a6 6 0 010 9.48A25.53 25.53 0 0130 17a25.53 25.53 0 01-3.66-.26 6 6 0 010-9.48 25.89 25.89 0 017.32 0zm3.22.68c3 .89 5.3 2.34 6.07 4.06-.77 1.72-3 3.17-6.07 4.06a7.92 7.92 0 000-8.12zm-13.76 8.12c-3-.89-5.3-2.34-6.07-4.06.77-1.72 3-3.17 6.07-4.06a7.92 7.92 0 000 8.12zM30 19c5.23 0 9.82-1.35 12.56-3.51A14.65 14.65 0 0130 22a14.66 14.66 0 01-12.57-6.52C20.16 17.64 24.76 19 30 19zm0-17a14.66 14.66 0 0112.57 6.52C39.84 6.36 35.24 5 30 5s-9.82 1.35-12.56 3.51A14.65 14.65 0 0130 2zM8.28 16.48a1 1 0 01.85-.48h6.28c2.67 4.8 8.26 8 14.59 8s11.89-3.19 14.57-8h6.3a1 1 0 01.85.48L56.23 24H38a1 1 0 000 2h19v2.4a2.55 2.55 0 01-2 2.54 2.47 2.47 0 01-2.48-.88 2.06 2.06 0 00-1.52-.75 1.94 1.94 0 00-1.49.73 2.48 2.48 0 01-3.92 0 2 2 0 00-3.08 0 2.48 2.48 0 01-3.92 0 2 2 0 00-3.08 0 2.48 2.48 0 01-3.92 0 2 2 0 00-3.08 0 2.48 2.48 0 01-3.92 0 2 2 0 00-3.08 0 2.48 2.48 0 01-3.92 0 2 2 0 00-3.08 0 2.49 2.49 0 01-3.92 0 1.92 1.92 0 00-1.49-.74H9a2.06 2.06 0 00-1.57.75 2.46 2.46 0 01-2.43.89 2.55 2.55 0 01-2-2.54V26h19a1 1 0 000-2H3.77zM5 33a4.31 4.31 0 004-1.68A4.49 4.49 0 0012.5 33a4.22 4.22 0 003.5-1.72A4.49 4.49 0 0019.5 33a4.22 4.22 0 003.5-1.72A4.49 4.49 0 0026.5 33a4.22 4.22 0 003.5-1.72A4.49 4.49 0 0033.5 33a4.22 4.22 0 003.5-1.72A4.49 4.49 0 0040.5 33a4.22 4.22 0 003.5-1.72A4.49 4.49 0 0047.5 33a4.4 4.4 0 003.5-1.68A4.49 4.49 0 0055 33v20H20V38a2 2 0 00-2-2h-8a2 2 0 00-2 2v15H5zm13 20h-8V38h8zm40 4a1 1 0 01-1 1H3a1 1 0 01-1-1v-1a1 1 0 011-1h54a1 1 0 011 1z"/><path d="M25 49h25a2 2 0 002-2v-9a2 2 0 00-2-2H25a2 2 0 00-2 2v9a2 2 0 002 2zm17.18-11l-5.73 9h-2.63l5.73-9zM50 47H38.82l5.73-9H50zm-25-9h12.18l-5.73 9H25z"/><circle cx="15" cy="46" r="1"/><path d="M26 12a4 4 0 108 0 4 4 0 00-8 0zm6 0a2 2 0 11-4 0 2 2 0 014 0z"/></svg>