<svg height="512" viewBox="0 0 54 60" width="512" xmlns="http://www.w3.org/2000/svg"><path d="M20.91 42.69a32.21 32.21 0 001.47-4.64c.56-2.4.862-4.855.9-7.32v-1.3a34.48 34.48 0 00-.9-7.42 33.16 33.16 0 00-1.18-3.86h.06c2.54 0 6.16-1 7.67-4.73a1 1 0 00-1.86-.74A5.4 5.4 0 0122.71 16a5.38 5.38 0 001.5-3.22c.13-1.8-.89-3.27-1.79-4.57A12.89 12.89 0 0121.63 7a10.85 10.85 0 01-1.28-4.33 3 3 0 00-3-2.66H3A3 3 0 000 3v54a3 3 0 003 3h14.38a3 3 0 003-2.66A10.75 10.75 0 0121.63 53c.239-.416.502-.816.79-1.2.9-1.3 1.92-2.77 1.79-4.57a5.84 5.84 0 00-3.3-4.54zM8 26.36c.346.677.65 1.375.91 2.09a5 5 0 010 3.1A16.73 16.73 0 018 33.64l-.85-.85a4 4 0 010-5.58zm2.8 1.45a20.1 20.1 0 00-1.3-2.9c.9-.83 1.8-1.62 2.71-2.35a38.67 38.67 0 016.9-4.35 30.91 30.91 0 011.11 3.37A9 9 0 0015 30a9 9 0 005.2 8.42 28.91 28.91 0 01-1.11 3.37 38.77 38.77 0 01-6.91-4.35c-.91-.73-1.81-1.52-2.71-2.35.51-.93.944-1.9 1.3-2.9a6.84 6.84 0 000-4.38zm10.51 1.65v1.17a33.8 33.8 0 01-.61 5.81A7.14 7.14 0 0117 30a7.15 7.15 0 013.67-6.44 33 33 0 01.61 5.9zm-.51 21.21c-.3.44-.62.9-.88 1.36a12.77 12.77 0 00-1.53 5.11 1 1 0 01-1 .86H3a1 1 0 01-1-1V3a1 1 0 011-1h14.38a1 1 0 011 .86A12.86 12.86 0 0019.89 8c.26.45.58.91.88 1.35.78 1.12 1.52 2.18 1.44 3.27a3.91 3.91 0 01-2.31 3 43.6 43.6 0 00-9 5.42 58.27 58.27 0 00-5.24 4.83 6 6 0 000 8.34A58.27 58.27 0 0010.92 39a43.33 43.33 0 009 5.41 3.93 3.93 0 012.32 3c.05 1.08-.69 2.14-1.47 3.26z"/><path d="M50 31h-1.62c3.71-3.58 5.49-8.52 4.2-12.65a2.08 2.08 0 00-1.2-1.31 2.18 2.18 0 00-1.85.08l-22 11.45a2.19 2.19 0 00-1.13 1.47 2.14 2.14 0 00.38 1.74c2.09 2.69 5.68 4.11 9.58 4.11a17.07 17.07 0 003.16-.3A11.88 11.88 0 0037 43v15a2 2 0 002 2h13a2 2 0 002-2V35a4 4 0 00-4-4zm2 4v11a4 4 0 01-2.11-.66 5.14 5.14 0 01-1.89-3.5c-.71-4.27.18-7.14 1.16-8.3A1.29 1.29 0 0150 33a2 2 0 012 2zm-23.61-4.5a.25.25 0 01.1-.13l22-11.45a.2.2 0 01.22.06c1.42 4.54-1.77 10.34-7.27 13.2s-12.12 2.17-15.05-1.68zM39 58V43a10 10 0 018-9.8c-1 1.81-1.66 4.85-1 9a7 7 0 002.76 4.8A6.05 6.05 0 0052 48v5h-3a1 1 0 000 2h3v3z"/></svg>