<svg height="26" fill="#004a7c" viewBox="0 0 512 512" width="auto" xmlns="http://www.w3.org/2000/svg"><path d="M352.191 188.188c-10.726 0-21.21 1.503-31.324 4.472a110.783 110.783 0 00-18.945-25.293L256 121.445l-45.922 45.922a110.915 110.915 0 00-18.95 25.293c-10.108-2.969-20.593-4.472-31.32-4.472H94.864v64.945c0 61.312 49.88 111.191 111.192 111.191h99.89c61.313 0 111.192-49.879 111.192-111.191v-64.946zm-120.902.394L256 163.872l24.71 24.71c31.653 31.656 31.653 83.164 0 114.82L256 328.113l-24.71-24.71c-31.653-31.657-31.653-83.165 0-114.821zm-106.426 64.555V218.19h34.946a81.15 81.15 0 0120.62 2.641c-8.335 36.145 1.54 75.68 29.645 103.785l9.711 9.707h-13.73c-44.77 0-81.192-36.422-81.192-81.187zm262.274 0c0 44.765-36.422 81.187-81.192 81.187h-13.73l9.71-9.71c28.106-28.106 37.981-67.637 29.645-103.782a81.182 81.182 0 0120.621-2.645h34.946zm0 0"/><path d="M437.02 74.98C388.668 26.63 324.379 0 256 0S123.332 26.629 74.98 74.98C26.63 123.332 0 187.621 0 256s26.629 132.668 74.98 181.02C123.332 485.37 187.621 512 256 512s132.668-26.629 181.02-74.98C485.37 388.668 512 324.379 512 256s-26.629-132.668-74.98-181.02zm-21.215 340.825C373.12 458.492 316.367 482 256 482s-117.121-23.508-159.805-66.195C53.508 373.12 30 316.367 30 256S53.508 138.879 96.195 96.195C138.88 53.508 195.633 30 256 30s117.121 23.508 159.805 66.195C458.492 138.88 482 195.633 482 256s-23.508 117.121-66.195 159.805zm0 0"/></svg>