<svg xmlns="http://www.w3.org/2000/svg" viewBox="0 0 511.998 511.998"><path d="M105.999 185.998c-5.52 0-10 4.48-10 10s4.48 10 10 10 10-4.48 10-10-4.48-10-10-10zm240 20h-50v-50c0-5.522-4.478-10-10-10h-60c-5.522 0-10 4.478-10 10v50h-50c-5.522 0-10 4.478-10 10v60c0 5.522 4.478 10 10 10h50v50c0 5.522 4.478 10 10 10h60c5.522 0 10-4.478 10-10v-50h50c5.522 0 10-4.478 10-10v-60c0-5.522-4.478-10-10-10zm-10 60h-50c-5.522 0-10 4.478-10 10v50h-40v-50c0-5.522-4.478-10-10-10h-50v-40h50c5.522 0 10-4.478 10-10v-50h40v50c0 5.522 4.478 10 10 10h50v40z"/><path d="M410.374 30.741c-16.19 10.512-34.993 16.067-54.375 16.067-29.642 0-57.583-13.043-76.658-35.786h-.001C273.465 4.018 264.957 0 255.999 0s-17.466 4.018-23.342 11.021c-19.075 22.743-47.017 35.786-76.658 35.786-19.382 0-38.185-5.556-54.375-16.067-19.773-12.833-45.625 2.276-45.625 25.567v203.971c0 45.371 14.554 89.7 40.978 124.82 65.37 86.919 151.447 124.53 155.079 126.089a10.005 10.005 0 007.886 0c3.632-1.559 89.709-39.169 155.078-126.078 26.426-35.131 40.979-79.464 40.979-124.831V56.308c0-23.293-25.858-38.401-45.625-25.567zm-11.337 342.346c-54.362 72.275-125.664 109.534-143.044 117.893-17.387-8.339-88.551-45.46-143.033-117.904-23.835-31.677-36.961-71.735-36.961-112.797V56.308c0-7.613 8.401-12.902 14.734-8.792 19.441 12.621 42.01 19.292 65.266 19.292 35.57 0 69.097-15.648 91.981-42.933 2.096-2.499 4.943-3.875 8.019-3.875 3.076 0 5.923 1.376 8.018 3.875 22.886 27.284 56.412 42.933 91.982 42.933 23.256 0 45.824-6.671 65.266-19.292 6.23-4.047 14.734 1.064 14.734 8.792v203.97c0 41.059-13.126 81.121-36.962 112.809z"/><path d="M411.769 80.021a10.004 10.004 0 00-9.113-1.257A139.176 139.176 0 01356 86.808c-34.373 0-67.522-12.689-93.342-35.73a10 10 0 00-13.316 0c-25.819 23.041-58.969 35.73-93.342 35.73a139.176 139.176 0 01-46.656-8.044 10.003 10.003 0 00-13.343 9.425v67.81c0 5.522 4.478 10 10 10s10-4.478 10-10v-54.293a158.952 158.952 0 0040 5.103c36.395 0 71.575-12.433 100-35.181 28.425 22.748 63.605 35.181 100 35.181 13.54 0 26.942-1.713 40-5.103v158.573c0 32.451-10.273 63.964-28.934 88.74-37.813 50.296-83.997 81.439-110.972 96.772-27.188-15.534-73.669-46.913-111.164-96.756C126.275 324.244 116 292.723 116 260.278v-24.28c0-5.522-4.478-10-10-10s-10 4.478-10 10v24.28c0 36.756 11.702 72.548 32.949 100.781 42.051 55.902 94.681 89.75 122.31 104.951a10 10 0 009.616.013c27.416-14.984 79.745-48.548 122.172-104.979 21.249-28.216 32.952-64.001 32.952-100.766V88.188a10 10 0 00-4.23-8.167z"/></svg>