<svg viewBox="0 -15 477 477" width="48" fill="#fff" xmlns="http://www.w3.org/2000/svg"><path d="M114.5 356.55h-26a9.774 9.774 0 00-10 9.74v70.808c0 5.523 4.477 10.453 10 10.453h300c5.523 0 10-4.93 10-10.453v-70.809a9.781 9.781 0 00-10-9.738h-26V220.44c0-68.593-55.406-124.89-124-124.89h-.008c-68.594 0-123.992 56.304-123.992 124.898zm264 71h-280v-51h280zm-244-207.1c0-57.567 46.426-104.9 103.992-104.9h.008c57.566 0 104 47.325 104 104.9v136.1h-208zm0 0"/><path d="M297.184 221.55H267.5v-30.74a10.412 10.412 0 00-10.223-10.258h-37.554A10.412 10.412 0 00209.5 190.81v30.742h-29.684c-5.64.113-10.191 4.656-10.316 10.297v38.629a10.343 10.343 0 0010.316 10.074H209.5v30.965c.102 5.57 4.648 10.035 10.223 10.035h37.554c5.575 0 10.121-4.465 10.223-10.035V280.55h29.684a10.343 10.343 0 0010.316-10.074v-38.63c-.125-5.64-4.676-10.183-10.316-10.296zm-9.684 39h-30.223a9.755 9.755 0 00-9.777 9.926v31.075h-18v-31.074a9.755 9.755 0 00-9.777-9.926H189.5v-19h30.223a9.55 9.55 0 006.949-2.774 9.546 9.546 0 002.828-6.93v-31.296h18v31.297a9.546 9.546 0 002.828 6.93 9.55 9.55 0 006.95 2.773H287.5zm-49-177.038c5.523 0 10-4.48 10-10V10c0-5.523-4.477-10-10-10s-10 4.477-10 10v63.512c0 5.52 4.477 10 10 10zM467 234.55h-61.754c-5.523 0-10 4.477-10 10 0 5.52 4.477 10 10 10H467c5.523 0 10-4.48 10-10 0-5.523-4.477-10-10-10zm-385.246 10c0-5.523-4.477-10-10-10H10c-5.523 0-10 4.477-10 10 0 5.52 4.477 10 10 10h61.754c5.523 0 10-4.48 10-10zm31.668-113.84a9.997 9.997 0 009.644 2.77 9.996 9.996 0 004.695-16.71l-43.66-44.91a10.002 10.002 0 00-16.875 4.207c-.964 3.464 0 7.183 2.536 9.738zm242.984 3.028a9.98 9.98 0 007.172-3.027l43.664-44.906a10.003 10.003 0 00-4.676-16.75 10.003 10.003 0 00-9.66 2.804l-43.668 44.91a10 10 0 007.168 16.97zm0 0"/></svg>