<svg height="26" width="auto" fill="#004a7c" xmlns="http://www.w3.org/2000/svg" viewBox="0 0 512 512"><path d="M437.019 74.981C388.668 26.629 324.38 0 255.999 0S123.332 26.629 74.981 74.981 0 187.619 0 255.999s26.629 132.667 74.981 181.02C123.332 485.371 187.62 512 255.999 512s132.667-26.629 181.02-74.981S512 324.38 512 256s-26.629-132.668-74.981-181.019zM240.141 32.286v93.958c-59.427 7.22-106.677 54.47-113.897 113.898H32.286c7.796-111.057 96.799-200.059 207.855-207.856zm-81.868 207.855c6.777-41.912 39.956-75.09 81.868-81.868v81.868h-81.868zm81.868 31.717v81.869c-41.912-6.777-75.091-39.956-81.868-81.869h81.868zm0 207.856c-111.056-7.796-200.059-96.798-207.855-207.855h93.958c7.22 59.427 54.47 106.679 113.898 113.897v93.958zm31.717-447.428c111.057 7.797 200.06 96.799 207.856 207.855h-93.958c-7.22-59.427-54.47-106.677-113.899-113.897V32.286zm0 207.855v-81.868c41.913 6.777 75.091 39.956 81.869 81.868h-81.869zm81.869 31.717c-6.777 41.912-39.956 75.091-81.869 81.869v-81.869h81.869zm-81.869 207.857v-93.958c59.427-7.22 106.679-54.471 113.899-113.897h93.958c-7.797 111.055-96.8 200.057-207.857 207.855z"/></svg>