<svg xmlns="http://www.w3.org/2000/svg" viewBox="0 0 471.381 471.381"><circle cx="226.117" cy="68.267" r="68.267"/><path d="M397.138 200.67a16.541 16.541 0 00-1.173-.341l-50.381-12.595-63.71-47.787a17.063 17.063 0 00-10.24-3.413h-89.651a17.07 17.07 0 00-12.066 5l-102.4 102.4c-6.663 6.665-6.663 17.468 0 24.132l11.264 11.264c6.149 6.152 15.941 6.696 22.733 1.263l73.404-58.726v68.267l-17.067 85.333-41.301 41.301a17.065 17.065 0 00-2.133 21.538l16.043 24.064c5.222 7.847 15.817 9.975 23.663 4.753.414-.275.815-.568 1.203-.879l66.287-53.043a17.064 17.064 0 005.905-9.182l15.667-62.686 34.133 51.2 27.307 68.113c3.5 8.752 13.432 13.01 22.183 9.51.441-.176.875-.371 1.3-.584l37.291-18.637c8.089-4.041 11.622-13.69 8.055-21.999l-44.937-104.67-34.133-51.2-2.731-51.2 36.864 17.067 52.907 13.227c8.651 2.161 17.507-2.703 20.326-11.162l6.246-18.773c2.955-8.951-1.907-18.601-10.858-21.555z"/></svg>